<?xml version="1.0" encoding="utf-8"?>
<!-- Generator: Adobe Illustrator 24.0.0, SVG Export Plug-In . SVG Version: 6.00 Build 0)  -->
<svg version="1.1" id="Layer_1" xmlns="http://www.w3.org/2000/svg" xmlns:xlink="http://www.w3.org/1999/xlink" x="0px" y="0px"
	 viewBox="0 0 612 792" style="enable-background:new 0 0 612 792;" xml:space="preserve">
<g>
	<g>
		<path d="M73.4,565.2c0-10.2,0-19.8,0-29.4c0-2.5,1.9-2.2,3.5-2.2c10.6,0,21.2,0,31.9,0c1.3,0,2.7,0,4.5,0c0-2,0-3.4,0-4.9
			c0-43.5,0-86.9,0-130.4c0-4.9,0-4.9-4.8-4.9c-10.4,0-20.7-0.1-31.1,0.1c-3.2,0.1-4.1-1.1-4-4.1c0.1-8.6,0-17.2,0.1-25.9
			c0-5,0-5,5-5c61.3,0,122.7-0.1,184,0.1c4.4,0,7.3-1.1,9.2-5c1.4-2.9,3.2-5.6,5-8.2c3.1-4.5,0.9-8-1.7-11.5c-1-1.4-2.4-2.5-3.4-4
			c-3-4.6-7-6-12.5-5.9c-60.1,0.2-120.2,0.1-180.3,0.1c-5.3,0-5.3,0-5.4-5.3c0-8.1,0-16.2,0-24.4c0-4.9,0-4.9,5-4.9
			c63.6,0,127.2,0,190.8,0c1.5,0,3,0.1,4.5-0.1c3.5-0.4,5-2.4,3.9-5.7c-1.2-3.7-3.3-6.6-7.6-7.4c-8-1.4-15.9-2.8-23.8-4.3
			c-3.9-0.7-5.7-3.2-5.7-7.2c0-0.2,0-0.5,0-0.7c-0.2-8.8-0.2-8.8-9.3-8.8c-50.7,0-101.4,0-152.2,0c-5.6,0-5.6,0-5.6-5.5
			c0-8.2,0.1-16.5-0.1-24.7c-0.1-3.3,1-4.2,4.3-4.2c29.2,0.1,58.5,0.1,87.7,0.1c1.6,0,3.2,0,5,0c0-12,0-23.6,0-35.5
			c-1.6-0.1-3.2-0.3-4.8-0.3c-29.1,0-58.2-0.1-87.3,0.1c-3.7,0-5.1-0.8-4.9-4.7c0.3-8.2,0.3-16.5,0-24.7c-0.1-3.9,1.2-4.8,4.9-4.7
			c10.4,0.2,20.7,0.1,31.1,0.1c1.3,0,2.7,0,3.9,0c0-15.1,0.1-29.8-0.1-44.5c0-3.6,1.1-4.7,4.7-4.6c8.6,0.2,17.2,0.2,25.9,0
			c3.5-0.1,4.5,1.1,4.4,4.6c-0.2,13.6-0.1,27.2-0.1,40.8c0,1.1,0,2.2,0,3.5c1.6,0.1,2.8,0.2,4,0.2c24,0,48-0.1,72,0.1
			c3.5,0,4.3-1,4.3-4.4c-0.2-13.5,0-27-0.2-40.5c0-3.2,1-4.4,4.3-4.3c8.7,0.2,17.5,0.2,26.2,0c3.2-0.1,4.3,0.8,4.3,4.2
			c-0.2,14.8-0.1,29.7-0.1,44.7c26.8,0,53.6,0,80.4,0c0-14.6,0-29,0-43.3c0-5.5,0-5.5,5.6-5.5c8.2,0,16.5,0.2,24.7-0.1
			c3.4-0.1,4.2,1.1,4.2,4.3c-0.1,14.7-0.1,29.5-0.1,44.5c26.9,0,53.6,0,80.3,0c0-14.6,0-29.1,0-43.5c0-5.2,0-5.2,5.1-5.2
			c8.2,0,16.5,0,24.7,0c1.3,0,2.7,0.1,4.3,0.2c0,16.3,0,32.2,0,48.8c1.7,0,3.2,0,4.6,0c11.7,0,23.5,0.1,35.2-0.1c3,0,4.2,0.8,4.1,4
			c-0.2,8.7-0.2,17.5,0,26.2c0.1,3.2-1.2,3.9-4.2,3.9c-30.5-0.1-61-0.1-91.5-0.1c-5.3,0-5.3,0-5.3,5.3c0,8.7,0.1,17.5-0.1,26.2
			c-0.1,3.2,0.9,4.3,4.2,4.3c30.6-0.1,61.2-0.1,91.8-0.1c4.9,0,4.9,0,4.9,5c0,8.2-0.2,16.5,0.1,24.7c0.1,3.7-1.1,4.7-4.7,4.7
			c-32.5-0.1-65-0.1-97.4-0.1c-21.2,0-42.5,0.1-63.7-0.1c-3.5,0-5.2,0.8-4.6,4.6c0.3,1.8,0,3.7-0.1,5.6c-0.3,3.3-1.8,5.8-5.2,6.4
			c-6.1,1.2-12.3,2-18.3,3.3c-4.2,0.9-9.4,0.3-11.8,5.2c-1,2.1-2.1,5-1.4,6.8c0.5,1.4,3.9,2.3,6,2.3c64.2,0.1,128.4,0.1,192.6,0.1
			c8.6,0,8.6,0,8.6,8.8c0,7-0.2,14,0.1,21c0.2,3.9-1.3,5.2-5,4.8c-1.9-0.2-3.7,0-5.6,0c-60.2,0-120.4,0-180.7-0.1
			c-4,0-6.9,0.9-9.1,4.4c-1.3,2.1-3.3,3.7-4.9,5.6c-3.3,4-3.9,8.2-1,12.7c0.9,1.4,2,2.6,2.6,4.1c2.9,7.2,8.5,7.9,15.5,7.8
			c60.8-0.3,121.7-0.2,182.5-0.2c5.5,0,5.5,0,5.6,5.6c0,8.2-0.2,16.5,0.1,24.7c0.1,3.6-1,4.6-4.6,4.6c-65.2-0.1-130.4-0.1-195.6-0.1
			c-1.7,0-3.5,0-5.4,0c-0.3,2.9-0.7,5.5-0.8,8.1c-0.5,13.7-0.9,27.5-1.5,41.2c-1.3,28.9-2.8,57.8-4.2,86.8
			c-0.8,16.2-1.4,32.4-2.4,48.6c-0.2,2.7-1.2,5.6-2.7,7.8c-3.6,5-7.7,9.7-11.6,14.4c-2.6,3.2-5.8,3.2-8.4,0
			c-3.5-4.2-6.8-8.6-10.5-12.6c-3.3-3.7-4.2-7.9-4.3-12.7c-0.2-11,1.4-9.7-9.9-9.7c-65.1,0-130.2,0-195.3,0
			C77.3,565.2,75.7,565.2,73.4,565.2z M400,221c0.1-1.5,0.3-2.6,0.3-3.7c0-9.4-0.1-18.7,0.1-28.1c0.1-3.1-0.9-4-4-4
			c-62.2,0.1-124.4,0.1-186.5,0c-3.1,0-4.2,0.8-4.1,4c0.2,9,0.1,18,0.1,27c0,4.8,0,4.8,5,4.8c61.6,0,123.1,0,184.7,0
			C396.8,221,398.3,221,400,221z M148.3,533.5c1.5,0,2.7,0,3.8,0c41.8,0,83.6,0,125.4,0c0.7,0,1.6,0.2,2.2-0.1c0.8-0.5,2-1.3,1.9-2
			c-0.1-6.9-0.5-13.9-0.8-20.9c-44.4,0-88.4,0-132.6,0C148.3,518.2,148.3,525.6,148.3,533.5z M278.5,475.1c0-6.5-0.2-12.6,0.1-18.6
			c0.2-3.7-0.9-4.9-4.8-4.8c-40.5,0.1-80.9,0.1-121.4,0.1c-1.3,0-2.7,0.1-4.1,0.2c0,7.9,0,15.4,0,23.2
			C191.9,475.1,235.2,475.1,278.5,475.1z M148.3,416.8c2.1,0,3.7,0,5.3,0c21.7,0,43.5,0,65.2,0c18,0,36-0.1,54,0.1
			c2.9,0,4-0.7,3.8-3.8c-0.4-5-0.5-10-0.3-15c0.1-3.7-0.9-4.9-4.8-4.9c-39.7,0.2-79.5,0.1-119.2,0.1c-1.3,0-2.6,0.1-4,0.2
			C148.3,401.4,148.3,408.9,148.3,416.8z"/>
		<path d="M339.4,564.7c0-9.5,0.1-18.8,0-28c0-3.2,2-3.2,4.3-3.1c19.7,0,39.5,0,59.2,0c1,0,2.3,0.4,2.9-0.1c2.4-1.6,4.7-3.4,6.7-5.5
			c0.3-0.3-1.3-2.8-2.4-3.9c-9.6-10.3-19.4-20.6-29.1-30.8c-12.1-12.8-23.9-25.8-36.5-38.1c-4.3-4.2-5.5-8.4-5.3-13.8
			c0.3-6.1,0.3-12.2,0.2-18.3c0-2.7,1.1-3.9,3.7-3.9c2.9,0,5.7-0.2,8.6-0.2c58.6,0,117.2,0,175.7,0c8.5,0,8.5,0,8.5,8.4
			c0,6.4-0.3,12.8,0.1,19.1c0.3,5-1.8,8.7-5,11.9c-25.9,26-51.8,51.9-77.7,77.8c-9.3,9.3-18.8,18.4-28.3,27.6
			c-0.8,0.8-2.2,1.3-3.3,1.3c-26.9,0.1-53.7,0-80.6,0C340.8,565.1,340.3,564.9,339.4,564.7z"/>
		<path d="M437.7,564.5c2.2-2.3,4.2-4.4,6.2-6.5c7.7-7.7,15.4-15.4,23.2-23c0.9-0.8,2.3-1.4,3.5-1.5c20.7-0.1,41.5,0,62.2-0.1
			c2.5,0,3.3,0.9,3.2,3.3c-0.1,8.4-0.1,16.7,0,25.1c0,2-0.3,3.3-2.8,3.3c-31.5-0.1-63-0.1-94.4-0.1
			C438.7,565,438.6,564.9,437.7,564.5z"/>
		<path d="M81.4,642.7c-3.4,5.1-6.9,10.2-10.1,15.4c-1.9,3.1-4.3,4.5-7.9,4.5c-13.2,0.1-13.1,0.2-20.1-11.5
			c-1.6-2.7-3.6-5.2-5.5-7.8c-0.4,0.1-0.8,0.2-1.3,0.4c0,4.4,0,8.8,0,13.2c0,5.8,0,5.8-5.8,5.8c-9.6,0-8.3,0.8-8.3-8.5
			c-0.1-11,0.1-22-0.1-32.9c0-2.9,1-3.8,3.8-4.1c7.3-0.8,12.5,0.9,16.1,8.3c3.5,7.3,8.9,13.7,13.4,20.5c2.1,3.1,5.1,3.1,7.1,0
			c5.7-8.7,11.2-17.5,17.1-26.1c0.9-1.3,2.8-2.5,4.3-2.7c3.1-0.4,6.2-0.1,9.3-0.1c2.3-0.1,3,0.9,3,3.2c-0.1,13-0.1,26,0,38.9
			c0,2.3-1,3.2-3.1,3.3c-0.2,0-0.5,0-0.7,0c-12.4-0.1-10,1.3-10.2-9.5c-0.1-3.4,0-6.8,0-10.2C82.2,642.9,81.8,642.8,81.4,642.7z"/>
		<path d="M488.9,650.1c3.2-4.6,5.7-8,8.1-11.6c4.1-6.3,8-12.8,12.1-19.1c0.6-1,2.1-1.9,3.3-2c3.3-0.3,6.8-0.3,10.1,0
			c1,0.1,2.5,1.7,2.6,2.7c0.2,13.1,0.2,26.2,0,39.3c0,0.8-1.5,1.6-2.4,2.4c-0.1,0.1-0.5,0-0.7,0c-10.4,0.3-10.4,0.3-10.4-9.9
			c0-3.2,0-6.4,0-9.6c-0.3-0.1-0.7-0.2-1-0.3c-3.1,4.7-6.3,9.3-9.2,14.1c-2.2,3.6-4.5,5.4-9.2,6c-9.2,1.2-14.1-3-18-10.3
			c-1.6-3.1-4-5.9-6-8.8c-0.3,0.1-0.7,0.2-1,0.2c0,4.8-0.1,9.6,0.1,14.4c0.1,3.1-0.7,4.7-4.2,4.3c-2.2-0.2-4.5-0.2-6.7,0
			c-2.7,0.2-3.4-1-3.4-3.5c0.1-12.5,0.1-25,0-37.4c0-2.8,1.3-3.2,3.8-3.7c9.2-1.8,13.7,3.2,17.7,10.3
			C478.5,634.9,483.6,641.9,488.9,650.1z"/>
		<path d="M168.1,661.8c0-6.3,0-11.9,0-17.5c0-7.7,0-15.5,0-23.2c0-1.9,0.1-3.4,2.7-3.4c17,0.1,34-0.1,51,0.3
			c6.8,0.1,10.7,5.1,10.5,12c-0.2,6.3-0.7,7.4-4.9,11.3c4.5,1.3,5.4,4.6,5.3,8.7c-0.1,3.8,0,7.7,0,11.9c-4.5,0-8.5,0.1-12.5-0.1
			c-0.8,0-2-1.4-2-2.2c-0.3-2.8-0.2-5.7-0.1-8.6c0.1-3.1-1.5-4.7-4.5-4.7c-9.4-0.1-18.7,0-28.1-0.1c-2.1,0-3,0.9-2.9,2.9
			c0,3.2-0.1,6.5,0,9.7c0.1,2.4-0.9,3.3-3.3,3.2C175.7,661.6,172.2,661.8,168.1,661.8z M199.9,636.3
			C199.9,636.3,199.9,636.3,199.9,636.3c4.4,0,8.7,0.1,13.1,0c3.9-0.1,6.2-2,6-5.1c-0.2-3.4-2.5-4.5-5.6-4.5c-9.2,0-18.4,0-27.6-0.1
			c-3.8,0-3.3,2.5-3.3,4.9c0,2.3-0.6,5,3.3,4.8C190.5,636.2,195.2,636.3,199.9,636.3z"/>
		<path d="M561,662c-8.2-0.4-16.4-0.4-24.6-1.3c-5.1-0.5-7.5-3.8-7.6-9.1c-0.1-7,0.2-14-0.1-21c-0.4-7,5.3-12.4,11.3-12.6
			c14.6-0.6,29.2-0.3,43.8-0.1c4.4,0.1,10.2,6.2,9.9,11.3c-0.4,7.2-0.1,14.5-0.1,21.7c0,5.3-2.7,8.6-7.9,9.8
			c-1.1,0.3-2.2,0.6-3.3,0.6c-7.1,0.1-14.2,0-21.3,0C561,661.7,561,661.8,561,662z M561.5,651.6
			C561.5,651.6,561.5,651.6,561.5,651.6c2.1,0,4.2,0,6.4,0c2.1,0,4.2,0,6.4,0c5.2,0,6.6-1.4,6.6-6.7c0.1-3.4,0.1-6.7,0-10.1
			c-0.1-4.5-1.2-6-5.7-6c-9.7-0.1-19.5,0.1-29.2,0.3c-2.7,0-4.1,1.5-4.1,4.3c0,4.1-0.1,8.2,0,12.4c0.1,4.1,1.9,5.7,6.1,5.8
			C552.5,651.7,557,651.6,561.5,651.6z"/>
		<path d="M235.8,661.8c4-5.5,7.3-10,10.5-14.7c4.1-6,8-12.2,12-18.2c1.9-2.9,4.1-5.6,5.9-8.5c1.4-2.2,3.2-2.7,5.6-2.8
			c14.4-0.2,15.7,0.8,22.8,13.8c3.1,5.7,7.2,10.9,10.9,16.2c3.1,4.5,6.2,8.9,9.8,14c-6.3,0-11.8,0.2-17.3-0.2
			c-1.3-0.1-2.8-2.3-3.6-3.8c-1.3-2.5-3-3.5-5.9-3.5c-8.5,0.2-17,0.1-25.5,0c-2.6,0-4.3,0.6-5.3,3.1c-1.4,3.4-3.8,4.8-7.6,4.5
			C244.4,661.5,240.6,661.8,235.8,661.8z M283.9,645c-3.5-5.7-6.7-10.7-10-16.1c-3.4,5.6-6.5,10.6-9.9,16.1
			C270.8,645,277,645,283.9,645z"/>
		<path d="M449.4,617.6c0,11.4,0.4,22.3-0.1,33c-0.3,6.9-5.4,10.8-13.2,11c-12.3,0.2-24.7,0.2-37.1,0c-2.8,0-5.7-0.8-8.4-1.7
			c-4.1-1.5-6.6-4.5-6.6-9c0-10.1,0-20.2-0.1-30.3c0-2.4,1.1-3,3.2-3c2.6,0.1,5.2,0.1,7.9,0c2.7-0.2,3.4,1.1,3.4,3.6
			c-0.1,8-0.1,16,0,23.9c0,4.8,1.1,6,6,6c8.2,0.1,16.5,0.1,24.7,0c4.6-0.1,5.7-1.3,5.7-5.9c0.1-8,0.1-16,0-23.9
			c0-2.7,0.9-3.8,3.6-3.7C442,617.8,445.6,617.6,449.4,617.6z"/>
		<path d="M150.7,617.7c4,0,8-0.1,11.9,0.1c0.8,0,2.1,1.3,2.1,1.9c0,10.8,0.2,21.7-0.4,32.5c-0.4,5.9-4,9.1-11.2,9.2
			c-14.7,0.3-29.4-0.3-44.1-0.7c-4.6-0.1-9.4-4.6-9.4-10.3c0-10,0-20-0.1-29.9c0-2.1,0.9-2.9,2.9-2.9c0.2,0,0.5,0,0.7,0
			c11-0.4,11-0.4,11,10.5c0,6,0.1,12,0,18c-0.1,3.3,1.4,5,4.6,5c9.1,0.1,18.2,0.1,27.3,0c3.1,0,4.3-1.9,4.2-5
			c-0.1-8.7,0-17.5,0-26.2C150.4,619.4,150.5,618.8,150.7,617.7z"/>
		<path d="M331.3,646.7c0,4.7-0.1,8.3,0,11.8c0.1,2.4-0.9,3.3-3.3,3.3c-3.6-0.1-7.2,0-11.1,0c-0.1-1.4-0.3-2.5-0.3-3.5
			c0-12.2,0.1-24.5-0.1-36.7c0-2.7,0.7-3.9,3.6-3.7c2.5,0.2,5,0.2,7.5,0c3.1-0.3,3.9,1.1,3.8,3.9c-0.2,3.2,0,6.4,0,10.4
			c6.7-3.4,12.8-6,18.3-9.3c5.7-3.4,11.3-6,18.1-5.2c3.7,0.4,7.4,0.1,11.1,0.1c0.1,0.3,0.1,0.6,0.2,0.9
			c-11.8,7.1-23.7,14.1-36.3,21.6c13,7.2,24.9,13.9,36.8,20.5c-11.6,1.3-22.8,2.6-32.8-5.3C342.5,652,337.2,649.9,331.3,646.7z"/>
	</g>
</g>
</svg>
